<svg xmlns="http://www.w3.org/2000/svg" viewBox="0 0 383.45 111.67"><defs><style>.cls-1{fill:#505050;}.cls-2{fill:#fe4365;}</style></defs><title>long-pink</title><g id="Layer_2" data-name="Layer 2"><g id="Layer_1-2" data-name="Layer 1"><path class="cls-1" d="M190.42,48.35a6.85,6.85,0,0,1,3.6,4.4c.3,1.3-.4,2.1-2.3,1.8a33.3,33.3,0,0,0-4.6-.3c-3.2,6.3-6.5,13.1-9.8,20.4-.7,1.6-2.4,2.1-3.5.3a8.88,8.88,0,0,1-1.7-5.1,20.65,20.65,0,0,1,1.3-6.2c.7-1.9,2-5.2,3.6-8.5-6.2.8-12.6,2-17.1,2-2.9,6-5.8,12.4-8.7,18.8-.7,1.7-2.5,2.2-3.7.5a8.47,8.47,0,0,1-1.7-5.2c0-2.9,1-5.9,5.2-15.8a7.68,7.68,0,0,1-3.2-3c-1-1.9-.4-2.6,2.3-2.4,1.5.1,2.1.3,3.2.3,6.2-12.9,15.3-29.5,19.5-35.5,1.6-2.1,3.1-1.8,4.2.1a8.3,8.3,0,0,1,.9,4.1,24.09,24.09,0,0,1-3.3,11.1l-10.7,19.5c6.3-.9,11.4-2.2,16.9-2.7,6.4-12.7,15-28,19-33.3,1.8-2.3,3.3-2,4.3.2a8.87,8.87,0,0,1,.9,3.8c0,2.8-1,6.6-3.9,11.6C194.82,40.45,192.62,44.35,190.42,48.35Z"/><path class="cls-1" d="M210.72,61.65a12.85,12.85,0,0,1-7.1-2.2,21.17,21.17,0,0,0-.9,5.9c0,4.4,1.8,7.5,4.8,7.5,7.6,0,14.3-7.4,18.4-13.6,1.1-1.6,2.4-1.8,3.2.2a8.61,8.61,0,0,1-1.4,6.5c-4.2,6.1-12.2,10.8-20,10.9-9.3.1-14.4-6-14.4-14a24.86,24.86,0,0,1,3.1-11.5c5.2-10.6,13.3-15.9,19.1-15.9a6.48,6.48,0,0,1,3.5.8,18.22,18.22,0,0,1,6.2,5.2,7.28,7.28,0,0,1,1,3.7C226.22,51.15,219.52,61.65,210.72,61.65Zm-5.7-6a4,4,0,0,0,2.2.7c2.4,0,5.6-3,7.6-5.7,2.9-3.9,5-8.6,3.9-9.5C217.22,39.95,209.82,46,205,55.65Z"/><path class="cls-1" d="M255,76.55c-5.2.3-8.4-2.2-9.2-6.2-3.1,3.3-7.1,6-11.4,6-5.8,0-9-4.2-9-10.3,0-4.3,1.6-9.5,5.2-14.7,8-11.5,16.1-16,21.4-16,3.4,0,5.5,1.7,6.4,4.2.8-1.3,1.5-2.3,1.9-2.9,1.3-1.6,2.7-2.1,4-.7a7.6,7.6,0,0,1,1.8,5.2,14.32,14.32,0,0,1-1.5,6.2c-1.2,2.7-2.8,5.1-4.3,7.9a93.62,93.62,0,0,0-4.9,9.1,20.1,20.1,0,0,0-1.5,5.7c0,1.6.5,2.5,1.5,2.4,5.8-.6,13.9-12,18.5-26.1a4.86,4.86,0,0,1-3-4.7c0-5.1,6.2-12.4,9.4-12.6,2.1-.1,3.1,1.3,3.1,3.5a31.75,31.75,0,0,1-1.7,8.5,28.65,28.65,0,0,0,8.9-4.2c1.9-1.3,2.9-1.6,4.3-.1a10.62,10.62,0,0,1,2.9,6.7,7.12,7.12,0,0,1-1.5,4c-4.4,5-9.4,11.9-11,16.8a14.36,14.36,0,0,0-.7,4.4c0,2.5.8,4.1,2.3,4.2,3.5.3,9.1-6.3,12.3-13.6.7-1.6,2.4-1.5,3.2.5a8.72,8.72,0,0,1-.3,6.7c-2.7,6.2-9.9,10.6-15.8,10.4-6.4-.2-9.9-4.6-9.9-10.4a20.67,20.67,0,0,1,.8-5.3c1.5-5,6-11.1,9.9-15.7a19.93,19.93,0,0,1-7.3,1.8C274.92,61.05,265.82,75.75,255,76.55Zm-1.6-35.1c-2.7,0-9.3,6-14.6,14.4-3,4.8-4.5,9.7-4.5,13.1,0,1.7.3,3,1.1,3,3.3,0,8.1-5.8,13-14.4,3.8-6.7,5.6-11.6,5.6-14.2C254,42,253.82,41.45,253.42,41.45Z"/><path class="cls-1" d="M299.71,57.25a208.88,208.88,0,0,1,9.8-20c-3.1-.4-4.9-1.5-5.7-2.7-1.4-2.1-.4-3.1,1.9-3a57.23,57.23,0,0,0,7.2-.2c3.1-5.4,5.2-8.7,7.5-12,1.5-2.2,2.7-2.1,3.8-.2a9,9,0,0,1,1.1,4.1,17.61,17.61,0,0,1-1.6,6.9,7.22,7.22,0,0,1,5.5,3.2c1,1.8.3,3-2.1,2.7a30.25,30.25,0,0,0-6.6.3c-3.8,6.5-9.5,16.4-13,24a19,19,0,0,0-1.8,7.5c0,3,1,5.1,2.7,5.1,3.9,0,9.1-6.3,12.6-13.8,1.1-2.4,3.4-2.6,4.1.1.5,2.1.1,3.6-1,5.9-1.4,3-8.1,11.6-16.5,11.6-5.3,0-9.9-4.3-9.9-11.2A21.91,21.91,0,0,1,299.71,57.25Z"/><path class="cls-1" d="M353.52,25.85c-3.1,11.9-14,23.7-22.8,29.6-2,5.1-3.3,9.6-3.3,13.1,0,2.4.6,4.1,1.9,4.1,4.6,0,10.4-6.7,14.2-13.9,1.3-2.5,3.5-2.5,4.2.1a9.66,9.66,0,0,1-1,6.5c-1.5,3-8.9,11.2-17.3,11.2-6.1,0-9.9-3.5-9.9-10.4a24,24,0,0,1,.7-5.7c3.9-16.6,15.2-35.1,25-45.4,1.9-1.9,3.7-2.5,5.6-.7a9.75,9.75,0,0,1,3.3,7.3A13.29,13.29,0,0,1,353.52,25.85Zm-11.4,7.9c-2.6,4.4-7,11.9-7.7,13.6a62.81,62.81,0,0,0,10-12.7c3.4-5.7,4.7-10.1,4.1-10.5C348.11,23.95,345.51,27.85,342.11,33.75Z"/><path class="cls-1" d="M381.81,65.45c-4,6.1-10.6,9.8-18.8,13.2-5.5,13.2-12.3,29.2-21,32.5-2.3.9-4.4.9-6.8-2.3a14.86,14.86,0,0,1-3-8.3,15.92,15.92,0,0,1,.9-4.7c3.1-8.6,11.2-14.7,20.9-18.6l1.5-3.5a13.34,13.34,0,0,1-8.2,2.8c-5,0-7.2-3.8-7.2-8a20.9,20.9,0,0,1,1.3-7,110.78,110.78,0,0,1,13.4-24.9c1.3-1.7,2.8-1.8,3.9-.2a9,9,0,0,1,1.9,4.8c0,2.5-1.2,5.4-3.5,9.1a84.79,84.79,0,0,0-7.4,14.2c-1.4,3.6-2.3,7.6.3,7.6s7.1-5.9,12-14.2c6.7-11.3,9.4-17.4,11.8-21,1.4-1.8,2.7-2,3.8-.9a6.42,6.42,0,0,1,1.9,5.1,14.35,14.35,0,0,1-1.8,6.7c-2.9,5.6-8.1,15.3-12.2,24.8A50.91,50.91,0,0,0,380,59.35c1.3-1.8,2.8-2,3.2-.7A8.41,8.41,0,0,1,381.81,65.45Zm-40.7,29.8c-2.5,4.7-3.2,8.8-2.2,9.7.7.6,2.8-2.3,5.6-7.2,2.1-3.7,4.5-8.6,6.9-14A33.26,33.26,0,0,0,341.11,95.25Z"/><path class="cls-2" d="M110.71.28A33.13,33.13,0,0,0,74,26.35,38,38,0,1,0,9,62.9l0,0A49.94,49.94,0,0,0,26.68,85l.38.28,9.39,6.41a27.13,27.13,0,0,1,3.41-1.87,26.62,26.62,0,0,1,.83-9.12l-6.8-4.64A38,38,0,0,0,75.45,44.7,33,33,0,0,0,118.73,63.8l-4.08,6a26.62,26.62,0,0,1,4.09,8.2,27.12,27.12,0,0,1,3.85.51L129,69.09l.26-.4a50.05,50.05,0,0,0,8.29-24.35A33.07,33.07,0,0,0,110.71.28ZM44.36,12.59a26.57,26.57,0,0,1,19.3,19.08,15.26,15.26,0,1,1-19.3-19.08ZM42.91,64.39A26.52,26.52,0,0,1,33,12.27,21.85,21.85,0,0,0,64.11,43,26.57,26.57,0,0,1,42.91,64.39ZM129.3,32a33.3,33.3,0,0,1-1.05,8.71,23.11,23.11,0,1,1,1.27-8.36Z"/></g></g></svg>