<svg xmlns="http://www.w3.org/2000/svg" viewBox="0 0 139.53 91.74"><defs><style>.cls-1{fill:#fe4365;}</style></defs><title>pink</title><g id="Layer_2" data-name="Layer 2"><g id="Layer_1-2" data-name="Layer 1"><path class="cls-1" d="M110.71.28A33.13,33.13,0,0,0,74,26.35,38,38,0,1,0,9,62.9l0,0A49.94,49.94,0,0,0,26.68,85l.38.28,9.39,6.41a27.13,27.13,0,0,1,3.41-1.87,26.62,26.62,0,0,1,.83-9.12l-6.8-4.64A38,38,0,0,0,75.45,44.7,33,33,0,0,0,118.73,63.8l-4.08,6a26.62,26.62,0,0,1,4.09,8.2,27.12,27.12,0,0,1,3.85.51L129,69.09l.26-.4a50.05,50.05,0,0,0,8.29-24.35A33.07,33.07,0,0,0,110.71.28ZM44.36,12.59a26.57,26.57,0,0,1,19.3,19.08,15.26,15.26,0,1,1-19.3-19.08ZM42.91,64.39A26.52,26.52,0,0,1,33,12.27,21.85,21.85,0,0,0,64.11,43,26.57,26.57,0,0,1,42.91,64.39ZM129.3,32a33.3,33.3,0,0,1-1.05,8.71,23.11,23.11,0,1,1,1.27-8.36Z"/></g></g></svg>